<svg width="16" height="16" viewBox="0 0 16 16" xmlns="http://www.w3.org/2000/svg">
  <defs>
    <linearGradient id="gatorGradSmall" x1="0%" y1="0%" x2="100%" y2="100%">
      <stop offset="0%" stop-color="#8B5CF6" />
      <stop offset="100%" stop-color="#A855F7" />
    </linearGradient>
  </defs>
  
  <!-- Background -->
  <rect width="16" height="16" rx="8" fill="url(#gatorGradSmall)" />
  
  <!-- Simplified G for small size -->
  <path d="M5 3 C3 3 2 4 2 6 L2 10 C2 12 3 13 5 13 L9 13 C10 13 11 12 11 11 L11 8 L8 8 L8 10 L9 10 L9 11 L5 11 L5 5 L9 5 L9 6 L11 6 C11 4 10 3 9 3 L5 3 Z" 
        fill="white" />
</svg>